<svg xmlns="http://www.w3.org/2000/svg" viewBox="0 0 600 150" width="600" height="150">
  <!-- Travertine coffee table with a small drawer. -->
  <ellipse cx="300" cy="138" rx="280" ry="12" fill="#3b2e3a" opacity="0.18"/>
  <!-- pedestal legs -->
  <rect x="96" y="60" width="70" height="80" rx="14" fill="#c99a6b"/>
  <rect x="434" y="60" width="70" height="80" rx="14" fill="#c99a6b"/>
  <rect x="96" y="60" width="18" height="80" rx="9" fill="#dbb286"/>
  <rect x="434" y="60" width="18" height="80" rx="9" fill="#dbb286"/>
  <!-- apron + drawer -->
  <rect x="60" y="44" width="480" height="30" rx="8" fill="#b98457"/>
  <rect x="220" y="48" width="160" height="22" rx="5" fill="#c99a6b"/>
  <rect x="284" y="56" width="32" height="6" rx="3" fill="#d4a24c"/>
  <!-- top -->
  <rect x="0" y="14" width="600" height="36" rx="18" fill="#e9cfa1"/>
  <rect x="0" y="14" width="600" height="18" rx="9" fill="#f3ddb3"/>
  <rect x="24" y="17" width="300" height="5" rx="2" fill="#fffbf5" opacity="0.7"/>
  <path d="M120 30 C160 26 200 34 240 30 M360 36 C400 32 440 38 480 34" stroke="#d9bd8c" stroke-width="2" fill="none" opacity="0.8"/>
</svg>
