<svg xmlns="http://www.w3.org/2000/svg" viewBox="0 0 380 210" width="380" height="210">
  <!-- Vintage travel trunk with brass corners and travel stickers. -->
  <ellipse cx="190" cy="204" rx="184" ry="8" fill="#3b2e3a" opacity="0.2"/>
  <rect x="10" y="40" width="360" height="160" rx="12" fill="#1f5f6b"/>
  <path d="M10 60 C10 20 370 20 370 60 V80 H10 Z" fill="#2e8c8c"/>
  <rect x="10" y="76" width="360" height="8" fill="#123c44"/>
  <rect x="80" y="30" width="20" height="170" fill="#a8744a"/><rect x="280" y="30" width="20" height="170" fill="#a8744a"/>
  <rect x="160" y="84" width="60" height="44" rx="6" fill="#d4a24c"/><circle cx="190" cy="100" r="6" fill="#7a5134"/><rect x="188" y="102" width="4" height="12" rx="2" fill="#7a5134"/>
  <path d="M10 180 V200 H40 M370 180 V200 H340 M10 60 V40 H40 M370 60 V40 H340" stroke="#d4a24c" stroke-width="8" fill="none"/>
  <g transform="rotate(-8 130 150)"><rect x="110" y="130" width="46" height="32" rx="6" fill="#f6c453"/><circle cx="133" cy="146" r="8" fill="#ee7b6b"/></g>
  <circle cx="236" cy="156" r="20" fill="#f9b98a"/><path d="M226 156 H246" stroke="#c8674a" stroke-width="3"/>
  <g transform="rotate(10 320 140)"><rect x="306" y="120" width="44" height="30" rx="4" fill="#fffbf5"/><rect x="312" y="126" width="32" height="8" fill="#9c8ac4"/></g>
</svg>
