<svg xmlns="http://www.w3.org/2000/svg" viewBox="0 0 150 150" width="150" height="150">
  <!-- Wall safe (closed). -->
  <rect x="8" y="10" width="140" height="138" rx="16" fill="#3b2e3a" opacity="0.15"/>
  <rect x="4" y="4" width="140" height="138" rx="16" fill="#1f5f6b"/>
  <rect x="4" y="4" width="140" height="10" rx="5" fill="#6cc2be" opacity="0.35"/>
  <rect x="16" y="16" width="116" height="114" rx="10" fill="#2e8c8c"/>
  <rect x="16" y="16" width="116" height="8" rx="4" fill="#6cc2be" opacity="0.5"/>
  <circle cx="68" cy="72" r="30" fill="#a87a2e"/>
  <circle cx="68" cy="72" r="25" fill="#d4a24c"/>
  <circle cx="68" cy="72" r="10" fill="#a87a2e"/>
  <g stroke="#7a5134" stroke-width="3" stroke-linecap="round">
    <line x1="68" y1="49" x2="68" y2="55"/><line x1="91" y1="72" x2="85" y2="72"/><line x1="68" y1="95" x2="68" y2="89"/><line x1="45" y1="72" x2="51" y2="72"/>
  </g>
  <circle cx="61" cy="64" r="4" fill="#fbe3a0" opacity="0.8"/>
  <rect x="108" y="56" width="12" height="34" rx="6" fill="#d4a24c"/>
  <rect x="110" y="58" width="4" height="28" rx="2" fill="#fbe3a0" opacity="0.8"/>
  <circle cx="28" cy="28" r="4" fill="#1f5f6b"/><circle cx="120" cy="28" r="4" fill="#1f5f6b"/><circle cx="28" cy="118" r="4" fill="#1f5f6b"/><circle cx="120" cy="118" r="4" fill="#1f5f6b"/>
</svg>
